<?xml version="1.0" standalone="no"?>
<!DOCTYPE svg PUBLIC "-//W3C//DTD SVG 20010904//EN"
 "http://www.w3.org/TR/2001/REC-SVG-20010904/DTD/svg10.dtd">
<svg version="1.0" xmlns="http://www.w3.org/2000/svg"
 width="200.000000pt" height="200.000000pt" viewBox="0 0 200.000000 200.000000"
 preserveAspectRatio="xMidYMid meet">
<metadata>
Created by potrace 1.14, written by Peter Selinger 2001-2017
</metadata>
<g transform="translate(0.000000,200.000000) scale(0.100000,-0.100000)"
fill="#000000" stroke="none">
<path d="M1120 1374 c0 -13 24 -64 31 -64 5 0 9 -43 9 -96 0 -91 -1 -96 -20
-91 -18 5 -20 0 -20 -37 0 -49 13 -66 53 -66 29 0 97 -46 97 -66 0 -6 7 -17
16 -24 12 -11 18 -10 31 3 14 13 14 19 3 32 -7 9 -19 14 -25 11 -7 -2 -29 9
-49 26 -27 22 -35 35 -31 49 9 27 -3 57 -26 64 -17 6 -19 16 -19 101 0 111 1
112 94 57 49 -29 75 -54 116 -113 29 -41 55 -83 58 -92 5 -21 32 -24 32 -4 0
7 -7 19 -15 26 -20 17 -105 136 -105 148 0 16 93 87 111 84 21 -4 41 21 33 42
-10 25 -53 20 -59 -7 -4 -13 -28 -42 -55 -65 l-48 -42 -66 38 c-40 23 -67 45
-70 58 -4 16 -15 23 -41 26 -19 2 -35 3 -35 2z"/>
<path d="M650 765 c0 -108 1 -115 20 -115 11 0 20 5 20 10 0 7 6 7 19 0 52
-27 111 12 111 75 0 58 -62 101 -109 75 -20 -10 -21 -8 -21 30 0 33 -3 40 -20
40 -19 0 -20 -7 -20 -115z m108 3 c28 -28 3 -84 -34 -76 -28 5 -40 33 -26 62
12 28 40 34 60 14z"/>
<path d="M872 809 c-35 -14 -21 -34 23 -34 22 0 40 -5 42 -12 3 -9 -6 -13 -25
-13 -16 0 -40 -8 -52 -18 -49 -40 6 -101 66 -73 15 6 24 7 24 1 0 -6 9 -10 20
-10 18 0 20 7 20 63 0 68 -4 78 -37 96 -26 13 -49 13 -81 0z m68 -103 c0 -8
-7 -17 -16 -20 -19 -7 -47 12 -38 25 9 15 54 10 54 -5z"/>
<path d="M1053 808 c-51 -25 -38 -74 23 -89 58 -15 58 -33 0 -27 -34 4 -46 2
-51 -10 -7 -20 -3 -23 44 -29 50 -7 91 16 91 52 0 27 -10 36 -53 44 -17 4 -33
13 -35 20 -4 11 4 13 37 8 35 -4 41 -2 41 13 0 28 -55 38 -97 18z"/>
<path d="M1234 810 c-28 -11 -54 -48 -54 -78 0 -31 52 -82 84 -82 14 0 36 5
50 12 36 16 16 38 -28 31 -22 -3 -36 0 -45 11 -12 14 -7 16 48 16 57 0 61 2
61 23 -1 26 -17 49 -47 65 -25 14 -40 14 -69 2z m64 -47 c2 -9 -8 -13 -32 -13
-34 0 -44 8 -29 24 11 11 56 2 61 -11z"/>
<path d="M1133 565 c0 -33 2 -45 4 -27 2 18 2 45 0 60 -2 15 -4 0 -4 -33z"/>
<path d="M883 555 c0 -27 2 -38 4 -22 2 15 2 37 0 50 -2 12 -4 0 -4 -28z"/>
<path d="M1167 562 c-15 -16 -15 -19 6 -31 20 -13 21 -13 8 2 -11 14 -11 20
-1 32 18 21 6 19 -13 -3z"/>
<path d="M1031 544 c0 -11 3 -14 6 -6 3 7 2 16 -1 19 -3 4 -6 -2 -5 -13z"/>
<path d="M946 542 c-3 -5 8 -6 25 -4 16 2 29 6 29 8 0 8 -49 4 -54 -4z"/>
</g>
</svg>
